HIERARCHY
ROOT Hips
{
	OFFSET 0.000000 0.000000 0.000000
	CHANNELS 6 Xposition Yposition Zposition Xrotation Yrotation Zrotation
	JOINT LeftUpLeg_virtual
	{
		OFFSET 0.000000 0.000000 0.000000
		CHANNELS 3 Xrotation Yrotation Zrotation
		JOINT LeftUpLeg
		{
			OFFSET 13.026900 -6.336304 -1.092800
			CHANNELS 3 Xrotation Yrotation Zrotation
			JOINT LeftLeg
			{
				OFFSET 0.524474 -46.096886 9.782700
				CHANNELS 3 Xrotation Yrotation Zrotation
				JOINT LeftFoot
				{
					OFFSET -0.524474 -53.427422 -12.948200
					CHANNELS 3 Xrotation Yrotation Zrotation
					JOINT LeftToeBase
					{
						OFFSET 0.192200 -14.009700 16.364100
						CHANNELS 3 Xrotation Yrotation Zrotation
						JOINT LeftToe_End
						{
							OFFSET -1.784700 -0.561700 9.474800
							CHANNELS 3 Xrotation Yrotation Zrotation
							End Site
							{
								OFFSET 0 0 0
							}
						}
					}
				}
			}
		}
	}
	JOINT RightUpLeg_virtual
	{
		OFFSET 0.000000 0.000000 0.000000
		CHANNELS 3 Xrotation Yrotation Zrotation
		JOINT RightUpLeg
		{
			OFFSET -12.883000 -6.336304 -1.092800
			CHANNELS 3 Xrotation Yrotation Zrotation
			JOINT RightLeg
			{
				OFFSET -0.524587 -46.096825 9.782800
				CHANNELS 3 Xrotation Yrotation Zrotation
				JOINT RightFoot
				{
					OFFSET 0.524587 -53.427383 -12.948300
					CHANNELS 3 Xrotation Yrotation Zrotation
					JOINT RightToeBase
					{
						OFFSET -0.192200 -14.009700 16.364100
						CHANNELS 3 Xrotation Yrotation Zrotation
						JOINT RightToe_End
						{
							OFFSET 1.784700 -0.561700 9.474800
							CHANNELS 3 Xrotation Yrotation Zrotation
							End Site
							{
								OFFSET 0 0 0
							}
						}
					}
				}
			}
		}
	}
	JOINT Spine_virtual
	{
		OFFSET 0.000000 0.000000 0.000000
		CHANNELS 3 Xrotation Yrotation Zrotation
		JOINT Spine
		{
			OFFSET 0.072000 7.257294 -0.789700
			CHANNELS 3 Xrotation Yrotation Zrotation
			JOINT Spine1
			{
				OFFSET 0.000000 12.508769 -0.658067
				CHANNELS 3 Xrotation Yrotation Zrotation
				JOINT Spine1_split
				{
					OFFSET 0.000000 12.508769 -0.658067
					CHANNELS 3 Xrotation Yrotation Zrotation
					JOINT Spine2
					{
						OFFSET 0.000000 12.508769 -0.658067
						CHANNELS 3 Xrotation Yrotation Zrotation
						JOINT Neck_virtual
						{
							OFFSET 0.000000 0.000000 0.000000
							CHANNELS 3 Xrotation Yrotation Zrotation
							JOINT Neck
							{
								OFFSET 0.000000 14.033295 7.520400
								CHANNELS 3 Xrotation Yrotation Zrotation
								JOINT Head
								{
									OFFSET 0.000000 8.198502 5.703100
									CHANNELS 3 Xrotation Yrotation Zrotation
									JOINT HeadTop_End
									{
										OFFSET 0.000000 17.760803 13.332701
										CHANNELS 3 Xrotation Yrotation Zrotation
										End Site
										{
											OFFSET 0 0 0
										}
									}
								}
							}
						}
						JOINT LeftShoulder_virtual
						{
							OFFSET 0.000000 0.000000 0.000000
							CHANNELS 3 Xrotation Yrotation Zrotation
							JOINT LeftShoulder
							{
								OFFSET 6.292450 5.785301 -0.669000
								CHANNELS 3 Xrotation Yrotation Zrotation
								JOINT LeftShoulder_split
								{
									OFFSET 6.292450 5.785301 -0.669000
									CHANNELS 3 Xrotation Yrotation Zrotation
									JOINT LeftArm
									{
										OFFSET 13.907140 -6.093903 1.965100
										CHANNELS 3 Xrotation Yrotation Zrotation
										JOINT LeftForeArm
										{
											OFFSET 34.140198 0.000000 0.000000
											CHANNELS 3 Xrotation Yrotation Zrotation
											JOINT LeftHand
											{
												OFFSET 40.960209 0.000000 0.000000
												CHANNELS 3 Xrotation Yrotation Zrotation
												End Site
												{
													OFFSET 0 0 0
												}
											}
										}
									}
								}
							}
						}
						JOINT RightShoulder_virtual
						{
							OFFSET 0.000000 0.000000 0.000000
							CHANNELS 3 Xrotation Yrotation Zrotation
							JOINT RightShoulder
							{
								OFFSET -6.292450 5.785301 -0.669000
								CHANNELS 3 Xrotation Yrotation Zrotation
								JOINT RightShoulder_split
								{
									OFFSET -6.292450 5.785301 -0.669000
									CHANNELS 3 Xrotation Yrotation Zrotation
									JOINT RightArm
									{
										OFFSET -13.907140 -6.093903 1.965100
										CHANNELS 3 Xrotation Yrotation Zrotation
										JOINT RightForeArm
										{
											OFFSET -34.140198 0.000000 0.000000
											CHANNELS 3 Xrotation Yrotation Zrotation
											JOINT RightHand
											{
												OFFSET -40.960209 0.000000 0.000000
												CHANNELS 3 Xrotation Yrotation Zrotation
												End Site
												{
													OFFSET 0 0 0
												}
											}
										}
									}
								}
							}
						}
					}
				}
			}
		}
	}
}
MOTION
Frames: 11
Frame Time: 0.03333333
16.958153 64.380394 -51.839436 0.000000 0.000000 0.000000 43.555631 -27.081825 11.267831 -66.161891 -0.659874 -7.154136 102.304233 2.626704 4.313556 12.147472 -3.773182 -8.446016 9.060723 -4.263423 -16.548879 0.000000 0.000000 0.000000 45.874699 -28.665396 12.579431 -106.504533 -7.369231 -25.894137 95.388243 -13.333369 7.756070 -16.803114 -2.473800 4.635869 -5.950239 0.123159 -0.048987 0.000000 0.000000 0.000000 44.897624 -29.079920 12.779491 34.324959 9.173700 5.087964 5.730895 3.260644 0.751839 0.781384 -0.568980 1.647519 0.000000 0.000000 0.000000 7.040176 2.781267 1.072370 -9.366566 -4.253580 0.293349 -22.061769 -19.031904 -7.531380 0.000000 0.000000 0.000000 6.676679 2.601779 0.758202 5.230170 -21.144568 -8.595358 1.196137 0.540149 -3.287584 -26.151010 -19.839765 -37.895245 1.870506 -36.551464 0.537748 0.000000 0.000000 0.000000 5.924825 2.423931 1.529913 -1.691363 28.823648 15.620113 -1.791742 0.803298 -2.024152 -51.751298 47.193831 18.026193 -1.118763 15.447448 -0.150213 0.000000 0.000000 0.000000 
17.352781 64.879944 -51.390720 0.000000 0.000000 0.000000 42.582995 -28.774668 11.635654 -66.220856 -0.878508 -7.776012 101.425625 3.098556 3.285746 7.298681 -1.274895 -7.465954 4.183262 -2.968521 -11.612522 0.000000 0.000000 0.000000 44.894570 -30.147048 13.091990 -104.764010 -7.137218 -25.536938 94.900732 -13.304754 8.130083 -16.850446 -3.197571 4.722741 -6.164970 0.291288 -0.077593 0.000000 0.000000 0.000000 43.845655 -31.279548 13.354006 33.997970 9.212394 4.196597 5.935929 3.251980 0.678614 0.866363 -0.470231 1.624445 0.000000 0.000000 0.000000 7.101238 2.757939 0.960574 -8.482904 -3.576128 -0.138403 -21.972263 -17.660462 -8.129422 0.000000 0.000000 0.000000 6.942200 2.623235 0.526514 5.704414 -21.535904 -8.585179 0.516224 0.265441 -3.221876 -24.368460 -16.865591 -37.748820 1.863506 -38.271835 0.656494 0.000000 0.000000 0.000000 6.179475 2.482730 1.389015 -1.181472 28.451850 14.900083 -1.995054 0.643867 -1.871277 -49.259673 45.517163 17.774382 -0.899437 18.743673 -0.148882 0.000000 0.000000 0.000000 
17.492727 65.505280 -51.078556 0.000000 0.000000 0.000000 41.228016 -29.764721 11.623359 -69.086988 -0.854221 -7.232473 101.989942 2.689591 2.203836 5.355120 -0.636616 -8.363836 -0.830440 -2.174793 -6.897188 0.000000 0.000000 0.000000 43.928406 -31.263497 13.517183 -102.646794 -6.637256 -24.676061 94.936187 -12.994720 8.405746 -17.545846 -4.107376 4.460838 -6.322535 0.482711 -0.145000 0.000000 0.000000 0.000000 42.826888 -32.301419 13.384659 33.576602 9.245349 3.234990 6.113638 3.222807 0.551770 1.046234 -0.782908 1.601334 0.000000 0.000000 0.000000 7.096217 2.756929 0.811326 -7.582923 -2.890728 -0.641395 -21.518752 -16.022381 -8.409345 0.000000 0.000000 0.000000 7.164167 2.632099 0.278870 6.172427 -22.115137 -8.367717 0.013388 -0.135302 -3.046186 -22.899912 -14.152624 -37.457393 1.596346 -39.675725 0.601415 0.000000 0.000000 0.000000 6.392379 2.556452 1.229763 -0.543745 28.001698 13.928108 -2.119214 0.354904 -1.705609 -47.167890 44.179883 17.650867 -0.699493 22.360265 -0.064775 0.000000 0.000000 0.000000 
17.343151 66.409866 -50.421368 0.000000 0.000000 0.000000 39.649122 -29.994670 11.266765 -74.219711 -1.296460 -5.687056 103.788181 1.312932 1.892921 8.099391 -2.195985 -11.250018 -10.710135 -1.931782 -2.064169 0.000000 0.000000 0.000000 42.863487 -31.941981 13.753898 -100.264008 -5.929370 -23.426331 95.392266 -12.253819 8.497187 -18.772929 -5.106441 3.988412 -6.253144 0.674002 -0.224046 0.000000 0.000000 0.000000 42.031710 -32.226806 13.033627 33.192213 9.241907 2.340921 6.257819 3.165327 0.396947 1.459182 -1.187809 1.672744 0.000000 0.000000 0.000000 7.055814 2.755401 0.658730 -6.776327 -2.297632 -1.191070 -20.895466 -14.358864 -8.442724 0.000000 0.000000 0.000000 7.311768 2.622323 0.049634 6.606480 -22.872062 -7.902722 -0.295076 -0.529994 -2.928260 -21.918512 -11.908954 -36.821895 1.129348 -40.815339 0.440656 0.000000 0.000000 0.000000 6.539867 2.630299 1.068020 0.142587 27.406663 12.772176 -1.984834 0.075620 -1.539221 -45.761864 43.455890 17.678531 -0.609738 25.642470 0.120796 0.000000 0.000000 0.000000 
16.990997 67.521271 -49.252552 0.000000 0.000000 0.000000 38.286653 -29.821313 10.899549 -79.762553 -2.545284 -4.364479 105.858302 0.199223 1.956310 12.390697 -4.235804 -13.532819 -25.342911 -2.596169 1.724664 0.000000 0.000000 0.000000 41.544714 -32.199725 13.722375 -97.740560 -5.182456 -22.078505 95.998889 -11.010794 8.273278 -20.353580 -6.079330 3.515251 -5.757717 0.844303 -0.259890 0.000000 0.000000 0.000000 41.334635 -31.671789 12.515727 33.058782 9.154670 1.594152 6.304128 3.074696 0.250277 1.487206 -1.407055 1.665588 0.000000 0.000000 0.000000 7.044781 2.721339 0.528308 -6.264978 -1.894844 -1.741511 -20.352132 -12.779025 -8.332056 0.000000 0.000000 0.000000 7.370233 2.585184 -0.131271 6.985208 -23.794238 -7.177790 -0.358369 -0.708752 -2.828526 -21.503362 -10.196829 -35.751293 0.657801 -41.837501 0.306059 0.000000 0.000000 0.000000 6.586028 2.645667 0.943824 0.784650 26.543442 11.376438 -1.412574 -0.070470 -1.394003 -45.284130 43.489594 18.074921 -0.662586 28.294598 0.374125 0.000000 0.000000 0.000000 
16.555176 69.054459 -47.412807 0.000000 0.000000 0.000000 37.212182 -29.471320 10.661072 -83.934569 -3.612846 -2.311441 106.924877 0.667819 1.033926 13.863880 -3.986385 -12.900477 -38.830517 -3.239293 3.058733 0.000000 0.000000 0.000000 39.994613 -31.990496 13.500707 -94.921926 -4.565184 -20.973575 96.173223 -9.419113 7.680041 -22.001076 -7.076469 3.253080 -5.024000 0.971455 -0.189934 0.000000 0.000000 0.000000 40.861723 -30.995467 12.124802 33.246246 8.900682 1.006435 6.258020 2.952473 0.143518 1.399110 -1.341189 1.547036 0.000000 0.000000 0.000000 7.103742 2.614109 0.438444 -6.186944 -1.649199 -2.196639 -20.083688 -11.350870 -8.217960 0.000000 0.000000 0.000000 7.348920 2.504193 -0.240874 7.272050 -24.801868 -6.283901 -0.244927 -0.516341 -2.839103 -21.635215 -9.125745 -34.307374 0.384417 -42.885829 0.332443 0.000000 0.000000 0.000000 6.559858 2.563997 0.854178 1.323503 25.328309 9.756690 -0.588994 -0.006634 -1.362393 -46.107049 44.144172 19.180004 -0.854738 30.330722 0.648722 0.000000 0.000000 0.000000 
16.188452 70.944763 -45.056561 0.000000 0.000000 0.000000 36.660088 -29.210332 10.811218 -86.553045 -4.367832 0.905392 106.993226 2.398009 -0.630036 12.367488 -1.538474 -11.182443 -44.915290 -2.482244 1.797519 0.000000 0.000000 0.000000 38.336817 -31.470025 13.230973 -91.361491 -4.259317 -20.428240 95.245287 -7.737576 6.802489 -23.457663 -8.115036 3.370633 -4.396085 1.029850 -0.026769 0.000000 0.000000 0.000000 40.590670 -30.369022 12.125223 33.769873 8.441884 0.514154 6.109884 2.804153 0.056578 1.119507 -0.766858 1.467989 0.000000 0.000000 0.000000 7.258420 2.415399 0.390622 -6.517303 -1.523619 -2.489563 -20.125431 -10.031178 -8.169818 0.000000 0.000000 0.000000 7.259149 2.363499 -0.291343 7.408012 -25.782724 -5.441132 -0.105327 -0.071021 -3.039664 -22.100009 -8.706643 -32.593946 0.477100 -43.995769 0.590450 0.000000 0.000000 0.000000 6.448019 2.364929 0.769481 1.721699 23.714342 7.889143 0.212332 0.250938 -1.392684 -48.297709 45.174437 21.249098 -1.068168 31.896068 0.834947 0.000000 0.000000 0.000000 
15.973039 73.161530 -42.232555 0.000000 0.000000 0.000000 36.481898 -29.092962 11.538294 -88.581960 -5.742534 4.559966 106.642482 3.738399 -1.654424 10.916914 1.201971 -11.358154 -43.343475 -0.709364 -0.742255 0.000000 0.000000 0.000000 36.873336 -30.604862 13.198210 -86.930966 -4.219397 -20.563365 92.950043 -6.124097 5.786743 -24.535371 -9.308104 3.944170 -4.082594 1.020867 0.185184 0.000000 0.000000 0.000000 40.377790 -29.711859 12.580276 34.573041 7.737731 0.063703 5.872412 2.617777 -0.042973 0.795941 -0.125142 1.304884 0.000000 0.000000 0.000000 7.465764 2.139260 0.341112 -7.164486 -1.479683 -2.578375 -20.400739 -8.756467 -8.214733 0.000000 0.000000 0.000000 7.149695 2.156580 -0.333575 7.374296 -26.681234 -4.756685 0.032927 0.648075 -3.309070 -22.690657 -9.005890 -30.696810 0.945144 -44.981672 1.032973 0.000000 0.000000 0.000000 6.319822 2.062344 0.654760 1.986397 21.766792 5.770099 0.775058 0.731282 -1.579548 -51.662543 46.137559 24.318192 -1.226597 33.291401 0.892440 0.000000 0.000000 0.000000 
15.930198 75.654282 -39.164249 0.000000 0.000000 0.000000 36.186612 -28.865923 12.709951 -90.394774 -7.473588 8.651089 105.145537 3.482520 -1.211021 10.900608 2.606918 -14.188220 -39.209702 0.597021 -2.370158 0.000000 0.000000 0.000000 35.809299 -29.573394 13.664474 -81.677799 -4.392219 -21.247576 89.252411 -4.670404 4.846412 -25.163476 -10.686021 4.988030 -4.201697 0.949794 0.374912 0.000000 0.000000 0.000000 40.071770 -28.785805 13.489618 35.537655 6.778207 -0.429972 5.630978 2.385416 -0.205787 0.685270 0.401942 1.115917 0.000000 0.000000 0.000000 7.674297 1.820098 0.268563 -7.900872 -1.524046 -2.439997 -20.688165 -7.508862 -8.300039 0.000000 0.000000 0.000000 7.059336 1.891663 -0.406836 7.178134 -27.450759 -4.249797 0.143157 1.354799 -3.521336 -23.243525 -10.044537 -28.524733 1.628208 -45.531216 1.525721 0.000000 0.000000 0.000000 6.240645 1.713879 0.475459 2.168388 19.684399 3.458406 0.983505 1.419005 -1.654211 -55.499891 46.714908 27.801363 -1.252384 34.524393 0.789482 0.000000 0.000000 0.000000 
15.908916 78.106186 -35.955128 0.000000 0.000000 0.000000 35.744726 -28.481284 14.287301 -91.253076 -8.382266 12.599577 101.685363 2.372586 -0.077844 11.266324 2.639873 -17.055705 -35.511923 0.878238 -2.204882 0.000000 0.000000 0.000000 35.020542 -28.682345 14.739780 -76.120682 -4.622086 -22.349571 84.646575 -3.317041 4.063431 -25.444087 -12.086865 6.345965 -4.406468 0.850315 0.490701 0.000000 0.000000 0.000000 39.542615 -27.594299 14.760616 36.586301 5.666300 -0.988224 5.441594 2.122427 -0.426966 0.674318 0.581517 0.826281 0.000000 0.000000 0.000000 7.813392 1.498694 0.157341 -8.546275 -1.713875 -2.109562 -20.817727 -6.311687 -8.313121 0.000000 0.000000 0.000000 7.014279 1.595233 -0.536941 6.878010 -28.016994 -3.880716 0.269746 2.010516 -3.536308 -23.707269 -11.790670 -25.957121 2.281970 -45.436884 1.874741 0.000000 0.000000 0.000000 6.242239 1.370876 0.238301 2.304055 17.672915 1.036066 0.970256 2.276293 -1.681564 -58.856164 46.875759 30.793266 -1.139571 35.523305 0.541213 0.000000 0.000000 0.000000 
15.630855 80.402451 -32.961147 0.000000 0.000000 0.000000 34.981948 -27.887304 15.975609 -91.318782 -8.340715 15.428016 96.316138 1.378265 1.042097 11.117278 2.333033 -18.680492 -30.703189 0.741249 -1.445082 0.000000 0.000000 0.000000 34.426875 -28.004546 16.372033 -70.855979 -4.755140 -23.634150 79.840492 -2.078843 3.497050 -25.470721 -13.382158 7.713052 -4.141713 0.791244 0.512769 0.000000 0.000000 0.000000 38.667173 -26.376179 16.127603 37.614770 4.516953 -1.542227 5.340122 1.856544 -0.639274 0.756419 0.295450 0.529948 0.000000 0.000000 0.000000 7.855755 1.211266 0.015886 -8.968302 -2.048255 -1.635945 -20.679380 -5.273472 -8.196866 0.000000 0.000000 0.000000 7.025280 1.311803 -0.695936 6.557885 -28.384466 -3.509669 0.406292 2.572859 -3.262146 -23.956024 -14.204668 -22.965237 2.685931 -44.728249 1.942153 0.000000 0.000000 0.000000 6.368424 1.088391 -0.002572 2.446229 16.012265 -1.292803 0.919470 3.178030 -1.622956 -61.208884 46.778152 32.568504 -0.992897 36.320593 0.257741 0.000000 0.000000 0.000000 
